<svg width="664" height="664" viewBox="0 0 664 664" fill="none" xmlns="http://www.w3.org/2000/svg">
<rect width="664" height="664" rx="20" fill="#00FFD9"/>
<path d="M85.84 613.664C79.952 613.664 74.576 612.149 69.712 609.12C64.8907 606.091 61.0293 602.037 58.128 596.96C55.2693 591.84 53.84 586.187 53.84 580C53.84 575.307 54.672 570.933 56.336 566.88C58 562.784 60.2827 559.2 63.184 556.128C66.128 553.013 69.5413 550.581 73.424 548.832C77.3067 547.083 81.4453 546.208 85.84 546.208C90.576 546.208 94.928 547.147 98.896 549.024C102.907 550.901 106.341 553.525 109.2 556.896C112.101 560.267 114.277 564.213 115.728 568.736C117.221 573.259 117.84 578.144 117.584 583.392H63.312C63.824 587.445 65.104 591.072 67.152 594.272C69.2427 597.472 71.888 600.011 75.088 601.888C78.3307 603.723 81.9147 604.661 85.84 604.704C90.1067 604.704 93.9467 603.595 97.36 601.376C100.816 599.157 103.589 596.107 105.68 592.224L114.768 594.336C112.208 600.011 108.347 604.661 103.184 608.288C98.0213 611.872 92.24 613.664 85.84 613.664ZM63.056 576.16H108.56C108.261 572.192 107.045 568.565 104.912 565.28C102.821 561.952 100.112 559.307 96.784 557.344C93.456 555.339 89.808 554.336 85.84 554.336C81.872 554.336 78.2453 555.317 74.96 557.28C71.6747 559.2 68.9867 561.824 66.896 565.152C64.8053 568.437 63.5253 572.107 63.056 576.16ZM180.602 516H189.562V612H180.602V600.032C178.383 604.128 175.333 607.435 171.45 609.952C167.61 612.427 163.045 613.664 157.754 613.664C153.103 613.664 148.751 612.789 144.698 611.04C140.645 609.291 137.061 606.88 133.946 603.808C130.874 600.693 128.463 597.109 126.714 593.056C124.965 589.003 124.09 584.651 124.09 580C124.09 575.349 124.965 570.997 126.714 566.944C128.463 562.848 130.874 559.264 133.946 556.192C137.061 553.077 140.645 550.645 144.698 548.896C148.751 547.147 153.103 546.272 157.754 546.272C163.045 546.272 167.61 547.531 171.45 550.048C175.333 552.523 178.383 555.787 180.602 559.84V516ZM157.818 604.96C162.383 604.96 166.309 603.851 169.594 601.632C172.879 599.371 175.397 596.341 177.146 592.544C178.938 588.747 179.834 584.565 179.834 580C179.834 575.307 178.938 571.083 177.146 567.328C175.354 563.531 172.815 560.523 169.53 558.304C166.245 556.085 162.341 554.976 157.818 554.976C153.295 554.976 149.178 556.107 145.466 558.368C141.754 560.587 138.789 563.595 136.57 567.392C134.351 571.189 133.242 575.392 133.242 580C133.242 584.651 134.373 588.875 136.634 592.672C138.895 596.427 141.882 599.413 145.594 601.632C149.349 603.851 153.423 604.96 157.818 604.96ZM218.178 531.296V548H237.378V556.96H218.178V612H209.218V556.96H200.45V548H209.218V531.296C209.218 528.181 209.965 525.365 211.458 522.848C212.994 520.288 215.042 518.261 217.602 516.768C220.162 515.232 222.999 514.464 226.114 514.464C228.375 514.464 230.551 514.912 232.642 515.808C234.775 516.704 236.674 518.027 238.338 519.776L231.938 526.112C231.255 525.259 230.381 524.597 229.314 524.128C228.29 523.659 227.223 523.424 226.114 523.424C223.938 523.424 222.061 524.192 220.482 525.728C218.946 527.264 218.178 529.12 218.178 531.296ZM274.34 613.664C268.452 613.664 263.076 612.149 258.212 609.12C253.391 606.091 249.529 602.037 246.628 596.96C243.769 591.84 242.34 586.187 242.34 580C242.34 575.307 243.172 570.933 244.836 566.88C246.5 562.784 248.783 559.2 251.684 556.128C254.628 553.013 258.041 550.581 261.924 548.832C265.807 547.083 269.945 546.208 274.34 546.208C280.228 546.208 285.583 547.723 290.404 550.752C295.268 553.781 299.129 557.856 301.988 562.976C304.889 568.096 306.34 573.771 306.34 580C306.34 584.651 305.508 589.003 303.844 593.056C302.18 597.109 299.876 600.693 296.932 603.808C294.031 606.88 290.639 609.291 286.756 611.04C282.916 612.789 278.777 613.664 274.34 613.664ZM274.34 604.704C278.692 604.704 282.596 603.573 286.052 601.312C289.551 599.008 292.303 595.979 294.308 592.224C296.356 588.469 297.38 584.395 297.38 580C297.38 575.52 296.356 571.403 294.308 567.648C292.26 563.851 289.487 560.821 285.988 558.56C282.532 556.299 278.649 555.168 274.34 555.168C269.988 555.168 266.063 556.32 262.564 558.624C259.108 560.885 256.356 563.893 254.308 567.648C252.303 571.403 251.3 575.52 251.3 580C251.3 584.608 252.345 588.789 254.436 592.544C256.527 596.256 259.321 599.221 262.82 601.44C266.319 603.616 270.159 604.704 274.34 604.704ZM316.68 612V516H325.64V612H316.68ZM391.039 612H380.735L362.815 581.088L350.015 596.384V612H341.055V516H350.015V582.432L378.879 548H390.591L368.895 573.792L391.039 612ZM421.831 613.216C418.332 613.131 414.919 612.491 411.591 611.296C408.263 610.101 405.362 608.48 402.887 606.432C400.412 604.384 398.642 602.059 397.575 599.456L405.319 596.128C406.002 597.792 407.26 599.328 409.095 600.736C410.972 602.101 413.106 603.211 415.495 604.064C417.884 604.875 420.252 605.28 422.599 605.28C425.202 605.28 427.634 604.853 429.895 604C432.156 603.147 433.991 601.931 435.399 600.352C436.85 598.731 437.575 596.832 437.575 594.656C437.575 592.309 436.807 590.475 435.271 589.152C433.735 587.787 431.794 586.72 429.447 585.952C427.1 585.141 424.69 584.373 422.215 583.648C417.692 582.411 413.703 581.045 410.247 579.552C406.791 578.059 404.082 576.16 402.119 573.856C400.199 571.509 399.239 568.501 399.239 564.832C399.239 560.949 400.327 557.6 402.503 554.784C404.722 551.925 407.602 549.728 411.143 548.192C414.727 546.613 418.546 545.824 422.599 545.824C427.804 545.824 432.54 546.955 436.807 549.216C441.116 551.477 444.231 554.485 446.151 558.24L438.919 562.528C438.151 560.779 436.935 559.264 435.271 557.984C433.607 556.704 431.708 555.701 429.575 554.976C427.484 554.251 425.351 553.867 423.175 553.824C420.444 553.781 417.906 554.187 415.559 555.04C413.212 555.851 411.314 557.067 409.863 558.688C408.455 560.309 407.751 562.293 407.751 564.64C407.751 566.987 408.455 568.779 409.863 570.016C411.271 571.211 413.17 572.192 415.559 572.96C417.991 573.685 420.722 574.539 423.751 575.52C427.634 576.757 431.282 578.165 434.695 579.744C438.108 581.323 440.86 583.285 442.951 585.632C445.042 587.979 446.066 590.944 446.023 594.528C446.023 598.368 444.871 601.717 442.567 604.576C440.263 607.435 437.276 609.632 433.607 611.168C429.938 612.661 426.012 613.344 421.831 613.216Z" fill="url(#paint0_linear_417_126)"/>
<defs>
<linearGradient id="paint0_linear_417_126" x1="250" y1="490" x2="250" y2="644" gradientUnits="userSpaceOnUse">
<stop/>
</linearGradient>
</defs>
</svg>
