<svg width="264" height="57" viewBox="0 0 264 57" fill="none" xmlns="http://www.w3.org/2000/svg">
<path d="M22.912 56.96C16.512 56.96 11.52 55.1253 7.936 51.456C4.352 47.7867 2.56 42.8373 2.56 36.608C2.56 31.1467 4.352 26.6667 7.936 23.168C11.6053 19.6693 16.2987 17.92 22.016 17.92C27.5627 17.92 32 19.5413 35.328 22.784C38.656 25.9413 40.32 29.8667 40.32 34.56C40.32 36.4373 39.808 37.8453 38.784 38.784C37.8453 39.7227 36.608 40.192 35.072 40.192H12.8C11.9467 40.192 11.648 40.6613 11.904 41.6C12.5867 43.9893 13.952 45.8667 16 47.232C18.1333 48.512 20.5227 49.152 23.168 49.152C25.1307 49.152 27.008 48.896 28.8 48.384C30.6773 47.872 32.2987 47.104 33.664 46.08C34.0907 45.7387 34.6453 45.568 35.328 45.568C36.2667 45.568 37.12 45.9947 37.888 46.848C38.656 47.616 39.04 48.5547 39.04 49.664C39.04 50.176 38.9547 50.688 38.784 51.2C38.6133 51.712 38.2293 52.224 37.632 52.736C35.4133 54.3573 33.024 55.4667 30.464 56.064C27.9893 56.6613 25.472 56.96 22.912 56.96ZM30.336 33.536C30.848 33.536 31.104 33.28 31.104 32.768C31.104 30.8053 30.208 29.0987 28.416 27.648C26.7093 26.1973 24.576 25.472 22.016 25.472C19.7973 25.472 17.664 26.0693 15.616 27.264C13.6533 28.4587 12.4587 30.0373 12.032 32C12.032 32 12.032 32.0427 12.032 32.128C11.9467 32.4693 11.904 32.768 11.904 33.024C11.9893 33.28 12.3733 33.408 13.056 33.408L30.336 33.536Z" fill="#EAFF00"/>
<path d="M65.757 56.96C62.0877 56.96 58.8023 56.1067 55.901 54.4C52.9997 52.6933 50.7383 50.3467 49.117 47.36C47.4957 44.288 46.685 40.8747 46.685 37.12C46.685 33.4507 47.4957 30.1653 49.117 27.264C50.7383 24.3627 52.9997 22.1013 55.901 20.48C58.8023 18.7733 62.0877 17.92 65.757 17.92C68.1463 17.92 70.2797 18.304 72.157 19.072C74.0343 19.84 75.6557 20.9067 77.021 22.272V4.35199C77.021 2.90132 77.4477 1.83466 78.301 1.15199C79.2397 0.383989 80.2637 -1.14441e-05 81.373 -1.14441e-05C82.4823 -1.14441e-05 83.4637 0.383989 84.317 1.15199C85.2557 1.83466 85.725 2.90132 85.725 4.35199V52.992C85.725 54.272 85.2557 55.2533 84.317 55.936C83.4637 56.6187 82.4823 56.96 81.373 56.96C80.2637 56.96 79.2397 56.6187 78.301 55.936C77.4477 55.2533 77.021 54.272 77.021 52.992V52.48C75.6557 53.8453 74.0343 54.912 72.157 55.68C70.2797 56.5333 68.1463 56.96 65.757 56.96ZM66.525 49.024C69.7677 49.024 72.3277 47.9573 74.205 45.824C76.0823 43.6053 77.021 40.704 77.021 37.12C77.021 33.7067 76.0823 30.976 74.205 28.928C72.3277 26.88 69.7677 25.856 66.525 25.856C63.197 25.856 60.509 26.88 58.461 28.928C56.413 30.976 55.389 33.7067 55.389 37.12C55.389 40.704 56.413 43.6053 58.461 45.824C60.509 47.9573 63.197 49.024 66.525 49.024Z" fill="#4100E5"/>
<path d="M103.306 56.96C102.026 56.96 101.002 56.576 100.234 55.808C99.466 55.04 99.082 54.0587 99.082 52.864V28.416C99.082 27.5627 98.6553 27.136 97.802 27.136H94.858C93.7487 27.136 92.81 26.7947 92.042 26.112C91.274 25.344 90.89 24.4053 90.89 23.296C90.89 22.1013 91.274 21.12 92.042 20.352C92.81 19.584 93.7487 19.2 94.858 19.2H97.802C98.6553 19.2 99.082 18.7733 99.082 17.92V14.592C99.082 10.3253 100.191 6.95466 102.41 4.47999C104.714 1.91999 107.957 0.639992 112.138 0.639992C113.077 0.639992 114.015 0.767991 114.954 1.02399C115.978 1.19466 116.746 1.36532 117.258 1.53599C118.879 2.13332 119.69 3.32799 119.69 5.11999C119.69 6.48532 119.263 7.55199 118.41 8.31999C117.642 9.00266 116.703 9.34399 115.594 9.34399C114.997 9.34399 114.442 9.25866 113.93 9.08799C113.418 8.91732 112.693 8.83199 111.754 8.83199C110.303 8.83199 109.279 9.34399 108.682 10.368C108.085 11.392 107.786 12.8853 107.786 14.848V17.92C107.786 18.7733 108.213 19.2 109.066 19.2H114.57C115.594 19.2 116.49 19.584 117.258 20.352C118.026 21.12 118.41 22.1013 118.41 23.296C118.41 24.4053 118.026 25.344 117.258 26.112C116.575 26.7947 115.637 27.136 114.442 27.136H109.066C108.213 27.136 107.786 27.5627 107.786 28.416V52.864C107.786 54.0587 107.359 55.04 106.506 55.808C105.653 56.576 104.586 56.96 103.306 56.96Z" fill="#70BCC3"/>
<path d="M142.775 56.96C139.02 56.96 135.607 56.1067 132.535 54.4C129.548 52.6933 127.202 50.3467 125.495 47.36C123.788 44.288 122.935 40.8747 122.935 37.12C122.935 33.4507 123.788 30.1653 125.495 27.264C127.202 24.3627 129.548 22.1013 132.535 20.48C135.607 18.7733 139.02 17.92 142.775 17.92C146.53 17.92 149.9 18.7733 152.887 20.48C155.874 22.1013 158.22 24.3627 159.927 27.264C161.719 30.1653 162.615 33.4507 162.615 37.12C162.615 40.8747 161.719 44.288 159.927 47.36C158.22 50.3467 155.874 52.6933 152.887 54.4C149.9 56.1067 146.53 56.96 142.775 56.96ZM142.775 49.024C146.103 49.024 148.791 47.9573 150.839 45.824C152.887 43.6053 153.911 40.704 153.911 37.12C153.911 33.7067 152.887 30.976 150.839 28.928C148.791 26.88 146.103 25.856 142.775 25.856C139.362 25.856 136.631 26.88 134.583 28.928C132.62 30.976 131.639 33.7067 131.639 37.12C131.639 40.704 132.62 43.6053 134.583 45.824C136.631 47.9573 139.362 49.024 142.775 49.024Z" fill="#0087A1"/>
<path d="M174.597 56.96C173.488 56.96 172.464 56.6187 171.525 55.936C170.672 55.2533 170.245 54.272 170.245 52.992V4.35199C170.245 2.90132 170.672 1.83466 171.525 1.15199C172.464 0.383989 173.488 -1.14441e-05 174.597 -1.14441e-05C175.706 -1.14441e-05 176.688 0.383989 177.541 1.15199C178.48 1.83466 178.949 2.90132 178.949 4.35199V52.992C178.949 54.272 178.48 55.2533 177.541 55.936C176.688 56.6187 175.706 56.96 174.597 56.96Z" fill="#FFAD29"/>
<path d="M193.847 56.96C192.738 56.96 191.714 56.6187 190.775 55.936C189.922 55.2533 189.495 54.272 189.495 52.992V4.35199C189.495 2.90132 189.922 1.83466 190.775 1.15199C191.714 0.383989 192.738 -1.14441e-05 193.847 -1.14441e-05C194.956 -1.14441e-05 195.938 0.383989 196.791 1.15199C197.73 1.83466 198.199 2.90132 198.199 4.35199V29.312C198.199 30.1653 198.327 30.592 198.583 30.592C198.839 30.592 199.18 30.4213 199.607 30.08L215.479 18.688C216.418 18.176 217.271 17.92 218.039 17.92C219.234 17.92 220.215 18.3467 220.983 19.2C221.751 19.968 222.135 20.8213 222.135 21.76C222.135 23.2107 221.452 24.3627 220.087 25.216L207.031 33.408C206.263 33.92 205.879 34.432 205.879 34.944C205.879 35.456 206.178 36.0107 206.775 36.608L220.727 49.792C221.666 50.9013 222.135 51.9253 222.135 52.864C222.135 53.9733 221.708 54.912 220.855 55.68C220.002 56.5333 219.02 56.96 217.911 56.96C216.802 56.96 215.778 56.4907 214.839 55.552L199.863 40.704C199.266 40.1067 198.882 39.808 198.711 39.808C198.37 39.808 198.199 40.32 198.199 41.344V52.992C198.199 54.272 197.73 55.2533 196.791 55.936C195.938 56.6187 194.956 56.96 193.847 56.96Z" fill="#BABA84"/>
<path d="M241.807 56.96C239.332 56.96 236.815 56.6187 234.255 55.936C231.695 55.3387 229.434 54.3573 227.471 52.992C226.447 52.0533 225.935 51.0293 225.935 49.92C225.935 48.8107 226.362 47.8293 227.215 46.976C228.154 46.1227 229.178 45.696 230.287 45.696C230.884 45.696 231.482 45.8667 232.079 46.208C233.615 47.1467 235.364 47.9147 237.327 48.512C239.375 49.024 241.295 49.28 243.087 49.28C244.794 49.28 246.244 48.9813 247.439 48.384C248.719 47.7867 249.359 46.8053 249.359 45.44C249.359 44.0747 248.762 43.0507 247.567 42.368C246.372 41.6853 244.324 41.1733 241.423 40.832C240.228 40.6613 238.778 40.448 237.071 40.192C235.45 39.936 233.828 39.4667 232.207 38.784C230.586 38.1013 229.22 37.0773 228.111 35.712C227.002 34.3467 226.447 32.512 226.447 30.208C226.447 26.4533 227.812 23.4667 230.543 21.248C233.359 19.0293 237.114 17.92 241.807 17.92C244.538 17.92 247.098 18.2613 249.487 18.944C251.962 19.6267 253.796 20.48 254.991 21.504C255.93 22.272 256.399 23.168 256.399 24.192C256.399 25.3013 256.015 26.2827 255.247 27.136C254.479 27.9893 253.54 28.416 252.431 28.416C251.834 28.416 251.279 28.288 250.767 28.032C249.402 27.264 247.866 26.7093 246.159 26.368C244.538 25.9413 242.959 25.728 241.423 25.728C239.631 25.728 238.095 26.0267 236.815 26.624C235.62 27.136 235.023 27.9893 235.023 29.184C235.023 30.0373 235.364 30.8053 236.047 31.488C236.815 32.0853 238.735 32.5973 241.807 33.024C243.258 33.1947 244.879 33.4507 246.671 33.792C248.548 34.1333 250.34 34.688 252.047 35.456C253.754 36.1387 255.162 37.248 256.271 38.784C257.38 40.32 257.935 42.4107 257.935 45.056C257.935 47.7867 257.167 50.048 255.631 51.84C254.095 53.5467 252.09 54.8267 249.615 55.68C247.226 56.5333 244.623 56.96 241.807 56.96Z" fill="#7DA8FF"/>
<circle cx="146" cy="32.68" r="4" fill="#0086A1"/>
<circle cx="69" cy="32.68" r="4" fill="#4100E5"/>
</svg>
